<svg width="116" height="33" viewBox="0 0 116 33" fill="none" xmlns="http://www.w3.org/2000/svg">
<g clip-path="url(#clip0_271_248)">
<path d="M42.8291 1.78003H46.0816V13.14H53.1085V15.78H42.8291V1.78003Z" fill="#7E57C2"/>
<path d="M57.5509 15.08C56.4047 14.471 55.4461 13.5631 54.7778 12.4535C54.1094 11.3438 53.7563 10.0741 53.7563 8.77998C53.7563 7.48589 54.1094 6.21614 54.7778 5.10648C55.4461 3.99681 56.4047 3.08896 57.5509 2.47998C58.7717 1.86209 60.1217 1.54004 61.491 1.54004C62.8603 1.54004 64.2103 1.86209 65.4311 2.47998C66.5774 3.08896 67.5359 3.99681 68.2043 5.10648C68.8726 6.21614 69.2257 7.48589 69.2257 8.77998C69.2257 10.0741 68.8726 11.3438 68.2043 12.4535C67.5359 13.5631 66.5774 14.471 65.4311 15.08C64.2103 15.6979 62.8603 16.0199 61.491 16.0199C60.1217 16.0199 58.7717 15.6979 57.5509 15.08ZM63.7447 12.69C64.4077 12.3156 64.9533 11.7651 65.3207 11.1C65.6971 10.3841 65.8937 9.58807 65.8937 8.77998C65.8937 7.97188 65.6971 7.17582 65.3207 6.45998C64.9533 5.79484 64.4077 5.2444 63.7447 4.86998C63.0522 4.49229 62.2755 4.29432 61.486 4.29432C60.6965 4.29432 59.9198 4.49229 59.2273 4.86998C58.5643 5.2444 58.0187 5.79484 57.6513 6.45998C57.2749 7.17582 57.0783 7.97188 57.0783 8.77998C57.0783 9.58807 57.2749 10.3841 57.6513 11.1C58.0187 11.7651 58.5643 12.3156 59.2273 12.69C59.9198 13.0677 60.6965 13.2656 61.486 13.2656C62.2755 13.2656 63.0522 13.0677 63.7447 12.69Z" fill="#7E57C2"/>
<path d="M80.5892 15.78L77.8788 11.8799H74.8672V15.78H71.6147V1.77995H77.6981C78.811 1.7533 79.9166 1.96472 80.9405 2.39995C81.8044 2.76722 82.541 3.37922 83.0586 4.15995C83.5681 4.96728 83.8266 5.90667 83.8015 6.85995C83.8388 7.80431 83.5807 8.73688 83.0627 9.52871C82.5448 10.3205 81.7927 10.9325 80.9104 11.28L84.0625 15.78H80.5892ZM79.766 5.04995C79.1198 4.58718 78.3314 4.36429 77.5375 4.41995H74.8873V9.29995H77.5375C78.3328 9.35488 79.1221 9.12821 79.766 8.65995C80.0105 8.4266 80.205 8.14639 80.3379 7.83619C80.4707 7.52599 80.5392 7.19222 80.5392 6.85495C80.5392 6.51769 80.4707 6.18391 80.3379 5.87371C80.205 5.56351 80.0105 5.2833 79.766 5.04995Z" fill="#7E57C2"/>
<path d="M97.2733 13.18V15.78H86.3916V1.78003H97.0374V4.38003H89.624V7.44503H96.149V9.94503H89.624V13.185L97.2733 13.18Z" fill="#7E57C2"/>
<path d="M112.652 15.78V7.38003L108.516 14.3H107.051L102.935 7.56003V15.78H99.8833V1.78003H102.559L107.819 10.48L112.999 1.78003H115.669L115.709 15.78H112.652Z" fill="#7E57C2"/>
<path d="M49.008 30.71C48.1968 31.0415 47.3245 31.1983 46.4482 31.17C43.7127 31.17 41.6548 29.45 41.6548 26.285C41.6548 23.26 43.7127 21.215 46.7192 21.215C47.5085 21.1795 48.2954 21.3267 49.018 21.645L48.7169 22.645C48.1041 22.3685 47.437 22.2319 46.7644 22.245C44.4907 22.245 42.9799 23.69 42.9799 26.245C42.9799 28.61 44.3451 30.13 46.7042 30.13C47.4056 30.139 48.1012 30.0028 48.747 29.73L49.008 30.71Z" fill="#7E57C2"/>
<path d="M50.4834 26.2549C50.4834 25.4399 50.4834 24.7549 50.4282 24.0949H51.5325L51.5776 25.4549H51.6379C51.76 25.0348 52.012 24.6637 52.358 24.3944C52.704 24.1251 53.1265 23.9713 53.5653 23.9549C53.6856 23.9535 53.8055 23.9686 53.9216 23.9999V25.1849C53.7795 25.1571 53.6348 25.1437 53.49 25.1449C53.0577 25.1629 52.6468 25.3374 52.3345 25.6356C52.0221 25.9339 51.8298 26.3354 51.7935 26.7649C51.758 26.958 51.7395 27.1537 51.7382 27.3499V31.0499H50.4834V26.2549Z" fill="#7E57C2"/>
<path d="M55.7487 27.7899C55.7788 29.4949 56.868 30.1949 58.1379 30.1949C58.7984 30.2155 59.4557 30.0944 60.0653 29.8399L60.2811 30.7399C59.547 31.0438 58.7569 31.1904 57.9622 31.1699C55.819 31.1699 54.5391 29.7649 54.5391 27.6699C54.5391 25.5749 55.7788 23.9299 57.8066 23.9299C60.0753 23.9299 60.6826 25.9299 60.6826 27.1949C60.6804 27.3924 60.6653 27.5894 60.6375 27.7849L55.7487 27.7899ZM59.4579 26.8849C59.4579 26.0849 59.1267 24.8399 57.7062 24.8399C56.4263 24.8399 55.8641 26.0149 55.7638 26.8849H59.4579Z" fill="#7E57C2"/>
<path d="M68.2617 20.855V29.235C68.2617 29.855 68.2617 30.555 68.3169 31.03H67.1826L67.1223 29.825H67.0922C66.8663 30.2512 66.524 30.605 66.1048 30.8457C65.6856 31.0863 65.2066 31.204 64.7231 31.185C63.0367 31.185 61.7417 29.765 61.7417 27.66C61.7417 25.355 63.1672 23.935 64.8637 23.935C65.2772 23.9094 65.6901 23.9941 66.0598 24.1804C66.4294 24.3667 66.7425 24.6479 66.9667 24.995V20.855H68.2617ZM66.9918 26.915C66.9931 26.7368 66.9746 26.5591 66.9366 26.385C66.8459 25.9701 66.6149 25.5987 66.2824 25.333C65.9499 25.0673 65.5359 24.9232 65.1096 24.925C63.7996 24.925 63.0216 26.07 63.0216 27.605C63.0216 29.005 63.7143 30.17 65.0795 30.17C65.5143 30.1683 65.9355 30.0186 66.2733 29.7458C66.611 29.473 66.8451 29.0934 66.9366 28.67C66.9761 28.4911 66.9946 28.3082 66.9918 28.125V26.915Z" fill="#7E57C2"/>
<path d="M71.7655 22.145C71.7655 22.3519 71.683 22.5503 71.5362 22.6966C71.3893 22.8428 71.1902 22.925 70.9825 22.925C70.7748 22.925 70.5757 22.8428 70.4288 22.6966C70.282 22.5503 70.1995 22.3519 70.1995 22.145C70.1967 22.0405 70.2153 21.9366 70.2542 21.8395C70.2931 21.7424 70.3514 21.6542 70.4256 21.5803C70.4998 21.5064 70.5883 21.4483 70.6858 21.4096C70.7833 21.3708 70.8876 21.3523 70.9925 21.355C71.0965 21.3521 71.2 21.3707 71.2965 21.4096C71.3929 21.4486 71.4802 21.507 71.5528 21.5812C71.6255 21.6555 71.6819 21.7439 71.7185 21.8409C71.7551 21.938 71.7711 22.0415 71.7655 22.145ZM70.3551 31.03V24.095H71.625V31.03H70.3551Z" fill="#7E57C2"/>
<path d="M75.2487 22.1V24.1H77.0606V25.06H75.2487V28.795C75.2487 29.655 75.4896 30.145 76.1973 30.145C76.4442 30.1471 76.6903 30.1185 76.9301 30.06L76.9853 31.005C76.6259 31.1298 76.2465 31.1874 75.866 31.175C75.6135 31.1907 75.3605 31.1515 75.1247 31.06C74.889 30.9684 74.676 30.8268 74.5008 30.645C74.1106 30.1281 73.9313 29.4832 73.9989 28.84V25.06H72.9448V24.095H74.024V22.445L75.2487 22.1Z" fill="#7E57C2"/>
<path d="M82.8225 21.37V27.085C82.8225 29.25 83.7862 30.17 85.0811 30.17C86.5217 30.17 87.4402 29.22 87.4402 27.085V21.37H88.705V27C88.705 29.965 87.139 31.185 85.041 31.185C83.0333 31.185 81.5576 30.055 81.5576 27.06V21.37H82.8225Z" fill="#7E57C2"/>
<path d="M90.8337 25.97C90.8337 25.255 90.8337 24.665 90.7734 24.095H91.8978L91.968 25.24H92.0182C92.2461 24.8338 92.5813 24.4974 92.9874 24.2674C93.3935 24.0373 93.8551 23.9224 94.3221 23.935C95.2858 23.935 96.7815 24.51 96.7815 26.885V31.03H95.5116V27.03C95.5116 25.915 95.095 24.98 93.9004 24.98C93.5166 24.987 93.145 25.1158 92.8398 25.3479C92.5347 25.5799 92.3119 25.903 92.2039 26.27C92.1446 26.461 92.1158 26.6601 92.1186 26.86V31.03H90.8537L90.8337 25.97Z" fill="#7E57C2"/>
<path d="M100.225 22.1449C100.209 22.3417 100.119 22.5253 99.9736 22.6591C99.8281 22.793 99.6372 22.8673 99.4391 22.8673C99.241 22.8673 99.0501 22.793 98.9046 22.6591C98.759 22.5253 98.6694 22.3417 98.6536 22.1449C98.6508 22.0404 98.6695 21.9365 98.7083 21.8394C98.7472 21.7423 98.8055 21.6541 98.8797 21.5802C98.9539 21.5063 99.0424 21.4482 99.1399 21.4095C99.2374 21.3707 99.3417 21.3522 99.4466 21.3549C99.5511 21.3513 99.6551 21.3694 99.7521 21.408C99.8492 21.4466 99.9371 21.505 100.01 21.5793C100.083 21.6536 100.14 21.7423 100.177 21.8396C100.214 21.937 100.23 22.041 100.225 22.1449ZM98.8142 31.0299V24.0949H100.079V31.0299H98.8142Z" fill="#7E57C2"/>
<path d="M108.476 27.5049C108.476 30.0699 106.694 31.1849 105.013 31.1849C103.125 31.1849 101.675 29.8099 101.675 27.6149C101.675 25.2949 103.181 23.9349 105.128 23.9349C107.076 23.9349 108.476 25.3799 108.476 27.5049ZM102.955 27.5749C102.955 29.0749 103.833 30.2399 105.068 30.2399C106.303 30.2399 107.181 29.1099 107.181 27.5449C107.181 26.3699 106.594 24.8799 105.098 24.8799C103.602 24.8799 102.955 26.2549 102.955 27.5749Z" fill="#7E57C2"/>
<path d="M110.087 25.97C110.087 25.255 110.087 24.665 110.032 24.095H111.152L111.222 25.24H111.252C111.48 24.8338 111.815 24.4974 112.221 24.2674C112.627 24.0373 113.089 23.9224 113.556 23.935C114.519 23.935 116.015 24.51 116.015 26.885V31.03H114.745V27.03C114.745 25.915 114.329 24.98 113.139 24.98C112.754 24.9859 112.382 25.1143 112.076 25.3464C111.769 25.5785 111.546 25.9022 111.438 26.27C111.378 26.461 111.349 26.6601 111.352 26.86V31.03H110.087V25.97Z" fill="#7E57C2"/>
<path d="M22.2504 17.03C21.9937 16.5525 21.6099 16.1546 21.1412 15.88C20.6624 15.6142 20.1233 15.4747 19.5752 15.4747C19.027 15.4747 18.488 15.6142 18.0092 15.88C17.5404 16.1546 17.1567 16.5525 16.8999 17.03C16.8177 17.1763 16.7504 17.3304 16.6992 17.49H19.2389V20.04H16.7293C16.7796 20.1719 16.8383 20.3005 16.9049 20.425C17.1618 20.9011 17.5457 21.2974 18.0142 21.57C18.493 21.8358 19.0321 21.9753 19.5802 21.9753C20.1283 21.9753 20.6674 21.8358 21.1462 21.57C21.6102 21.3021 21.992 20.9131 22.2504 20.445C22.5209 19.9197 22.6619 19.3379 22.6619 18.7475C22.6619 18.1572 22.5209 17.5753 22.2504 17.05V17.03ZM22.2504 17.03C21.9937 16.5525 21.6099 16.1546 21.1412 15.88C20.6624 15.6142 20.1233 15.4747 19.5752 15.4747C19.027 15.4747 18.488 15.6142 18.0092 15.88C17.5404 16.1546 17.1567 16.5525 16.8999 17.03C16.8177 17.1763 16.7504 17.3304 16.6992 17.49H19.2389V20.04H16.7293C16.7796 20.1719 16.8383 20.3005 16.9049 20.425C17.1618 20.9011 17.5457 21.2974 18.0142 21.57C18.493 21.8358 19.0321 21.9753 19.5802 21.9753C20.1283 21.9753 20.6674 21.8358 21.1462 21.57C21.6102 21.3021 21.992 20.9131 22.2504 20.445C22.5209 19.9197 22.6619 19.3379 22.6619 18.7475C22.6619 18.1572 22.5209 17.5753 22.2504 17.05V17.03ZM16.5787 6.81883e-06C13.3027 6.81883e-06 10.1003 0.967718 7.37647 2.78076C4.65261 4.5938 2.52962 7.17075 1.27597 10.1857C0.0223142 13.2007 -0.3057 16.5183 0.333408 19.719C0.972516 22.9197 2.55004 25.8597 4.86649 28.1673C7.18295 30.4748 10.1343 32.0463 13.3473 32.683C16.5603 33.3196 19.8907 32.9929 22.9173 31.744C25.9439 30.4952 28.5307 28.3803 30.3508 25.6669C32.1708 22.9535 33.1422 19.7634 33.1422 16.5C33.1422 14.3319 32.7133 12.1851 31.88 10.1823C31.0466 8.17941 29.8252 6.3598 28.2856 4.82744C26.7459 3.29507 24.9182 2.08001 22.9068 1.25169C20.8955 0.423365 18.74 -0.00196416 16.5636 6.81883e-06H16.5787ZM25.1114 21.765C24.565 22.6628 23.7821 23.3943 22.8477 23.88C21.8341 24.3825 20.7174 24.644 19.5852 24.644C18.4531 24.644 17.3363 24.3825 16.3227 23.88C15.3859 23.3959 14.6009 22.6642 14.054 21.765C13.7302 21.232 13.4978 20.6491 13.3664 20.04H8.84903V8.66501H12.0814V17.49H13.3714C13.4978 16.852 13.7357 16.2411 14.0741 15.685C14.6227 14.7885 15.4073 14.0588 16.3428 13.575C17.3555 13.0695 18.4726 12.8063 19.6053 12.8063C20.738 12.8063 21.8551 13.0695 22.8678 13.575C23.8125 14.0626 24.6023 14.8027 25.1484 15.7123C25.6945 16.622 25.9754 17.6652 25.9597 18.725C25.9604 19.8006 25.6559 20.8544 25.0813 21.765H25.1114ZM21.1562 15.88C20.6774 15.6142 20.1384 15.4747 19.5902 15.4747C19.0421 15.4747 18.5031 15.6142 18.0242 15.88C17.5555 16.1546 17.1717 16.5525 16.915 17.03C16.8327 17.1763 16.7655 17.3304 16.7142 17.49H19.2389V20.04H16.7293C16.7796 20.1719 16.8383 20.3005 16.9049 20.425C17.1618 20.9011 17.5457 21.2974 18.0142 21.57C18.493 21.8358 19.0321 21.9753 19.5802 21.9753C20.1283 21.9753 20.6674 21.8358 21.1462 21.57C21.6102 21.3021 21.992 20.9131 22.2504 20.445C22.5209 19.9197 22.6619 19.3379 22.6619 18.7475C22.6619 18.1572 22.5209 17.5753 22.2504 17.05C21.9926 16.5631 21.6031 16.1579 21.1261 15.88H21.1562Z" fill="#7E57C2"/>
</g>
<defs>
<clipPath id="clip0_271_248">
<rect width="116" height="33" fill="white"/>
</clipPath>
</defs>
</svg>
